<svg width="19" height="18" viewBox="0 0 19 18" fill="none" xmlns="http://www.w3.org/2000/svg">
<path d="M16.25 3.75C16.25 4.99264 13.2279 6 9.5 6C5.77208 6 2.75 4.99264 2.75 3.75M16.25 3.75C16.25 2.50736 13.2279 1.5 9.5 1.5C5.77208 1.5 2.75 2.50736 2.75 3.75M16.25 3.75V14.25C16.25 15.495 13.25 16.5 9.5 16.5C5.75 16.5 2.75 15.495 2.75 14.25V3.75M16.25 9C16.25 10.245 13.25 11.25 9.5 11.25C5.75 11.25 2.75 10.245 2.75 9" stroke="#050C1A" stroke-width="2" stroke-linecap="round" stroke-linejoin="round"/>
</svg>
