<svg width="22" height="22" viewBox="0 0 22 22" fill="none" xmlns="http://www.w3.org/2000/svg">
<path d="M18.875 4.875C18.875 6.32475 15.3492 7.5 11 7.5C6.65076 7.5 3.125 6.32475 3.125 4.875M18.875 4.875C18.875 3.42525 15.3492 2.25 11 2.25C6.65076 2.25 3.125 3.42525 3.125 4.875M18.875 4.875V17.125C18.875 18.5775 15.375 19.75 11 19.75C6.625 19.75 3.125 18.5775 3.125 17.125V4.875M18.875 11C18.875 12.4525 15.375 13.625 11 13.625C6.625 13.625 3.125 12.4525 3.125 11" stroke="#F8F9FF" stroke-width="2" stroke-linecap="round" stroke-linejoin="round"/>
</svg>
