<svg width="22" height="22" viewBox="0 0 22 22" fill="none" xmlns="http://www.w3.org/2000/svg">
<path d="M11 19.75C15.8325 19.75 19.75 15.8325 19.75 11C19.75 6.16751 15.8325 2.25 11 2.25C6.16751 2.25 2.25 6.16751 2.25 11C2.25 15.8325 6.16751 19.75 11 19.75Z" stroke="#F8F9FF" stroke-width="2" stroke-linecap="round" stroke-linejoin="round"/>
<path d="M11 16.25C13.8995 16.25 16.25 13.8995 16.25 11C16.25 8.10051 13.8995 5.75 11 5.75C8.10051 5.75 5.75 8.10051 5.75 11C5.75 13.8995 8.10051 16.25 11 16.25Z" stroke="#F8F9FF" stroke-width="2" stroke-linecap="round" stroke-linejoin="round"/>
<path d="M11 12.75C11.9665 12.75 12.75 11.9665 12.75 11C12.75 10.0335 11.9665 9.25 11 9.25C10.0335 9.25 9.25 10.0335 9.25 11C9.25 11.9665 10.0335 12.75 11 12.75Z" stroke="#F8F9FF" stroke-width="2" stroke-linecap="round" stroke-linejoin="round"/>
</svg>
