<svg width="27" height="26" viewBox="0 0 27 26" fill="none" xmlns="http://www.w3.org/2000/svg">
<path d="M9.4121 25.6525H0.995363C0.727269 25.6466 0.472498 25.5345 0.286975 25.3408C0.101452 25.1472 0.000337729 24.8879 0.00582766 24.6198V18.2708C0.434827 18.2004 0.868852 18.165 1.3036 18.165C5.51538 18.1673 8.98672 21.4464 9.4121 25.6525Z" fill="white"/>
<path d="M25.3619 0.652344H23.2009V2.34707C23.2006 2.80961 23.0166 3.25311 22.6894 3.58007C22.3623 3.90703 21.9186 4.0907 21.4561 4.0907H11.3242C10.9018 4.0907 10.4968 3.92293 10.1982 3.62431C9.89957 3.32568 9.73181 2.92066 9.73181 2.49834V0.652344H0.987498C0.719806 0.658312 0.465438 0.770334 0.280309 0.963781C0.0951799 1.15723 -0.00555867 1.41627 0.000236912 1.68396V15.3862L6.32758 15.3361C6.79862 15.33 7.25957 15.1987 7.66326 14.9559C8.06695 14.7131 8.39889 14.3674 8.62512 13.9542C9.0738 13.1487 9.60764 12.3937 10.2175 11.7022C12.4775 9.13733 15.4939 7.74402 18.5523 7.56431C18.6877 7.55521 18.8207 7.54838 18.9561 7.54725C19.2973 7.53815 19.6306 7.54725 19.9695 7.56545L26.3469 7.67919V1.68396C26.3527 1.41665 26.2523 1.15795 26.0676 0.964566C25.883 0.771184 25.6292 0.658905 25.3619 0.652344ZM5.46543 8.88596C5.00652 8.88596 4.55792 8.74989 4.17635 8.49493C3.79478 8.23997 3.49738 7.87759 3.32176 7.45361C3.14614 7.02963 3.1002 6.5631 3.18972 6.11301C3.27925 5.66292 3.50024 5.24948 3.82474 4.92498C4.14924 4.60049 4.56267 4.3795 5.01276 4.28997C5.46286 4.20044 5.92939 4.24639 6.35337 4.42201C6.77734 4.59762 7.13972 4.89502 7.39468 5.27659C7.64964 5.65816 7.78572 6.10677 7.78572 6.56568C7.78542 7.18096 7.54086 7.77096 7.10579 8.20603C6.67072 8.64111 6.08072 8.88566 5.46543 8.88596Z" fill="white"/>
<path d="M26.0511 14.9197C25.8583 14.4535 25.5718 14.0319 25.2094 13.681C21.7392 10.3382 16.2808 10.6294 13.0188 14.3305C12.9437 14.4158 12.8686 14.5045 12.797 14.591C11.0909 16.6804 10.7713 19.6239 11.8677 22.1251C12.356 23.2427 12.6517 24.4348 12.7424 25.651H25.4039C25.6601 25.6453 25.9036 25.5382 26.0808 25.353C26.2581 25.1679 26.3545 24.92 26.349 24.6638V16.4062C26.3494 15.8959 26.2481 15.3905 26.0511 14.9197ZM18.7888 21.7213C18.2714 21.7213 17.7656 21.5679 17.3354 21.2804C16.9052 20.993 16.5699 20.5844 16.3719 20.1064C16.1739 19.6284 16.1221 19.1024 16.223 18.5949C16.324 18.0875 16.5731 17.6213 16.939 17.2555C17.3048 16.8896 17.771 16.6405 18.2784 16.5395C18.7859 16.4386 19.3119 16.4904 19.7899 16.6884C20.2679 16.8864 20.6765 17.2217 20.9639 17.6519C21.2514 18.0821 21.4048 18.5879 21.4048 19.1053C21.4048 19.7991 21.1292 20.4645 20.6386 20.9551C20.148 21.4457 19.4826 21.7213 18.7888 21.7213Z" fill="white"/>
</svg>
