<svg width="84" height="31" viewBox="0 0 84 31" fill="none" xmlns="http://www.w3.org/2000/svg">
<g id="LOGO OTI" clip-path="url(#clip0_182_1225)">
<path id="Vector" fill-rule="evenodd" clip-rule="evenodd" d="M66.4341 7.74479L59.3274 14.6743L44.4847 0L58.698 1.22301e-06L66.4341 7.74479Z" fill="url(#paint0_linear_182_1225)"/>
<path id="Vector_2" fill-rule="evenodd" clip-rule="evenodd" d="M43.7223 0.814148L29.5752 14.672H43.7223L50.8339 7.73766L43.7223 0.814148Z" fill="white"/>
<path id="Vector_3" d="M75.8137 15.4047C75.4891 16.2635 75.0163 17.5586 74.3953 19.2901C73.5908 19.2901 72.3842 19.2901 70.7753 19.2901C70.7753 21.3032 70.7753 24.3299 70.7753 28.3701C70.7753 29.0881 70.5212 29.7005 70.0132 30.2072C69.505 30.7141 68.8911 30.9674 68.1713 30.9674C67.8185 30.9674 67.2752 30.9674 66.5412 30.9674C66.5412 28.3772 66.5412 24.4847 66.5412 19.2901C65.7369 19.2901 64.5302 19.2901 62.9213 19.2901C62.6107 18.4314 62.138 17.1362 61.5029 15.4047C63.888 15.4047 66.2732 15.4047 68.6582 15.4047C71.0435 15.4047 73.4285 15.4047 75.8137 15.4047Z" fill="url(#paint1_linear_182_1225)"/>
<path id="Vector_4" d="M77.2326 15.4047C78.6015 15.4047 80.662 15.4047 83.4141 15.4047C83.4141 18.8537 83.4141 24.0413 83.4141 30.9674C82.4685 30.9674 81.0572 30.9674 79.1802 30.9674C79.1802 28.4475 79.1802 24.6607 79.1802 19.6068C79.1802 18.5932 79.0108 17.7275 78.672 17.0095C78.3334 16.2916 77.8536 15.7566 77.2326 15.4047Z" fill="url(#paint2_linear_182_1225)"/>
<path id="Vector_5" d="M31.3192 19.2576C32.6921 19.2576 33.7836 19.6685 34.5937 20.4901C35.4174 21.3118 35.8293 22.5512 35.8293 24.2082V30.5763H31.9164V24.845C31.9164 24.0645 31.7654 23.4892 31.4633 23.1195C31.175 22.7499 30.7631 22.5649 30.2277 22.5649C29.6373 22.5649 29.1637 22.7703 28.8068 23.1812C28.4497 23.5921 28.2712 24.2151 28.2712 25.0504V30.5763H24.3584V24.845C24.3584 23.325 23.7954 22.5649 22.6696 22.5649C22.0656 22.5649 21.5851 22.7703 21.2281 23.1812C20.8712 23.5921 20.6926 24.2151 20.6926 25.0504V27.8373C20.6926 27.8373 20.6443 30.5763 16.7797 30.5763V19.4426H20.5073V20.6134C20.9192 20.1615 21.4066 19.826 21.9694 19.6069C22.546 19.3741 23.1708 19.2576 23.8436 19.2576C24.6261 19.2576 25.3263 19.4014 25.9441 19.6891C26.5619 19.9767 27.0631 20.4149 27.4474 21.0037C27.8869 20.4423 28.4429 20.0108 29.1157 19.7096C29.7883 19.4083 30.5228 19.2576 31.3192 19.2576Z" fill="white"/>
<path id="Vector_6" d="M42.2324 19.2576C44.086 19.2576 45.5 19.6822 46.4748 20.5313C47.4495 21.3666 47.937 22.6539 47.937 24.3932V30.5763H44.2919V29.1384C43.7289 30.2203 42.6307 30.7611 40.9968 30.7611C40.1319 30.7611 39.3836 30.6105 38.7521 30.3092C38.1206 30.0079 37.6399 29.604 37.3104 29.0973C36.9947 28.5768 36.8368 27.988 36.8368 27.3307C36.8368 26.2761 37.2418 25.4613 38.0518 24.8862C38.8619 24.2973 40.1113 24.0028 41.8 24.0028H44.0242C43.9555 22.8251 43.1661 22.2363 41.6558 22.2363C41.1204 22.2363 40.5781 22.3253 40.0289 22.5034C39.4797 22.6676 39.0129 22.9004 38.6286 23.2018L37.3104 20.5518C37.9282 20.1409 38.6766 19.826 39.5553 19.6069C40.4476 19.3741 41.3401 19.2576 42.2324 19.2576ZM42.0883 28.2962C42.5413 28.2962 42.9396 28.1865 43.2827 27.9674C43.626 27.7483 43.8731 27.4265 44.0242 27.0019V26.0365H42.3354C41.1959 26.0365 40.6261 26.4131 40.6261 27.1663C40.6261 27.5087 40.7565 27.7826 41.0174 27.988C41.2783 28.1933 41.6352 28.2962 42.0883 28.2962Z" fill="white"/>
<path id="Vector_7" d="M56.8527 19.2554C58.2394 19.2554 59.3514 19.6663 60.1889 20.4879C61.0401 21.3096 61.4657 22.549 61.4657 24.206V30.5741H57.5528V24.8429C57.5528 23.3228 56.9418 22.5627 55.72 22.5627C55.0472 22.5627 54.505 22.7818 54.0931 23.2201C53.6949 23.6583 53.4959 24.3157 53.4959 25.192V30.5741H49.583V15.4047H53.4959V20.4674C53.9214 20.0703 54.4226 19.769 54.9992 19.5636C55.5759 19.3582 56.1937 19.2554 56.8527 19.2554Z" fill="white"/>
<path id="Vector_8" d="M8.00413 14.6753C10.3264 14.6753 12.1469 15.2735 13.4656 16.4701C14.7844 17.6526 15.4438 19.2856 15.4438 21.3692C15.4438 22.0026 15.4438 22.9529 15.4438 24.2198C15.4438 26.2892 14.7844 27.9222 13.4656 29.1189C12.1325 30.3013 10.312 30.8926 8.00413 30.8926C5.69625 30.8926 3.88292 30.3013 2.56412 29.1189C1.24534 27.9222 0.585938 26.2892 0.585938 24.2198C0.585938 23.5863 0.585938 22.6362 0.585938 21.3692C0.585938 19.2856 1.24534 17.6526 2.56412 16.4701C3.88292 15.2735 5.69625 14.6753 8.00413 14.6753ZM10.9714 24.3254C10.9714 23.6496 10.9714 22.629 10.9714 21.2635C10.9714 20.4329 10.7134 19.7783 10.1973 19.2998C9.66696 18.8211 8.93589 18.5817 8.00413 18.5817C7.08672 18.5817 6.36281 18.8211 5.83242 19.2998C5.30205 19.7783 5.03687 20.4329 5.03687 21.2635C5.03687 21.9392 5.03687 22.9599 5.03687 24.3254C5.03687 25.1559 5.30205 25.8105 5.83242 26.2892C6.36281 26.7678 7.08672 27.0072 8.00413 27.0072C8.93589 27.0072 9.66696 26.7678 10.1973 26.2892C10.7134 25.8105 10.9714 25.1559 10.9714 24.3254Z" fill="white"/>
</g>
<defs>
<linearGradient id="paint0_linear_182_1225" x1="55.4594" y1="0" x2="55.4594" y2="14.6743" gradientUnits="userSpaceOnUse">
<stop stop-color="white"/>
<stop offset="1" stop-color="#999999"/>
</linearGradient>
<linearGradient id="paint1_linear_182_1225" x1="68.6583" y1="15.4047" x2="68.6583" y2="30.9674" gradientUnits="userSpaceOnUse">
<stop stop-color="white"/>
<stop offset="1" stop-color="#999999"/>
</linearGradient>
<linearGradient id="paint2_linear_182_1225" x1="80.3234" y1="15.4047" x2="80.3234" y2="30.9674" gradientUnits="userSpaceOnUse">
<stop stop-color="white"/>
<stop offset="1" stop-color="#999999"/>
</linearGradient>
<clipPath id="clip0_182_1225">
<rect width="82.8281" height="31" fill="white" transform="translate(0.585938)"/>
</clipPath>
</defs>
</svg>
